<svg xmlns="http://www.w3.org/2000/svg" width="24" height="24" viewBox="0 0 24 24">
    <g>
        <g>
            <path fill="#8247e5" d="M15.092 5.337a1.267 1.267 0 0 0-1.255 0l-2.878 1.7L9 8.142l-2.878 1.7a1.267 1.267 0 0 1-1.255 0L2.583 8.511a1.273 1.273 0 0 1-.627-1.07V4.82a1.2 1.2 0 0 1 .627-1.07l2.251-1.291a1.267 1.267 0 0 1 1.255 0l2.25 1.291a1.273 1.273 0 0 1 .627 1.07v1.7l1.956-1.144v-1.7a1.2 1.2 0 0 0-.627-1.07L6.125.171a1.267 1.267 0 0 0-1.255 0L.627 2.606A1.2 1.2 0 0 0 0 3.677v4.907a1.2 1.2 0 0 0 .627 1.07l4.244 2.436a1.267 1.267 0 0 0 1.255 0L9 10.429l1.956-1.144 2.878-1.661a1.267 1.267 0 0 1 1.255 0l2.251 1.292a1.273 1.273 0 0 1 .627 1.07v2.62a1.2 1.2 0 0 1-.627 1.07l-2.251 1.328a1.267 1.267 0 0 1-1.255 0l-2.251-1.292a1.273 1.273 0 0 1-.627-1.07v-1.7L9 12.09v1.7a1.2 1.2 0 0 0 .627 1.07l4.244 2.435a1.267 1.267 0 0 0 1.255 0l4.244-2.435a1.273 1.273 0 0 0 .63-1.073V8.88a1.2 1.2 0 0 0-.627-1.07z" transform="translate(7331 173) translate(-7329 -170.005)"/>
        </g>
        <path fill="none" d="M0 0H24V24H0z" transform="translate(7331 173) translate(-7331 -173)"/>
    </g>
</svg>
